<svg width="50" height="60" viewBox="0 0 50 60" fill="none" xmlns="http://www.w3.org/2000/svg">
<path d="M24.725 59.4566C21.4315 59.4287 18.1768 58.7481 15.153 57.4546C12.1291 56.1612 9.39732 54.2812 7.11854 51.9255C2.49195 47.1177 -0.0611452 40.7132 0.00111243 34.0713C0.0633701 27.4294 2.73609 21.073 7.452 16.3511L22.9244 0.991727C23.2259 0.670201 23.5928 0.415641 24.0009 0.244835C24.409 0.0740279 24.849 -0.00914648 25.2919 0.000797223C25.7355 0.00690562 26.1733 0.100616 26.5799 0.276441C26.9864 0.452266 27.3534 0.706671 27.6595 1.02476L42.8651 16.6154C47.4961 21.4189 50.0551 27.821 49.9991 34.4629C49.9431 41.1047 47.2764 47.4635 42.565 52.1897C40.2445 54.5364 37.4663 56.3908 34.3993 57.6401C31.3323 58.8894 28.0408 59.5074 24.725 59.4566Z" fill="#FF0000"/>
</svg>
