<svg width="27" height="24" viewBox="0 0 27 24" fill="none" xmlns="http://www.w3.org/2000/svg">
<path d="M13.5 24C13.3224 24.0011 13.1463 23.9654 12.9818 23.8952C12.8173 23.8249 12.6678 23.7214 12.5416 23.5906L2.05353 12.6067C0.737944 11.2164 0 9.33921 0 7.38306C0 5.42691 0.737944 3.54977 2.05353 2.15939C3.37941 0.776547 5.17544 0 7.04786 0C8.92029 0 10.7163 0.776547 12.0422 2.15939L13.5 3.68414L14.9578 2.15939C16.2837 0.776547 18.0797 0 19.9521 0C21.8246 0 23.6206 0.776547 24.9465 2.15939C26.2621 3.54977 27 5.42691 27 7.38306C27 9.33921 26.2621 11.2164 24.9465 12.6067L14.4584 23.5906C14.3322 23.7214 14.1827 23.8249 14.0182 23.8952C13.8537 23.9654 13.6776 24.0011 13.5 24ZM7.04786 2.82294C6.47645 2.82023 5.91021 2.93614 5.38193 3.16394C4.85365 3.39174 4.37383 3.72691 3.97027 4.15003C3.15506 5.00717 2.69744 6.167 2.69744 7.376C2.69744 8.585 3.15506 9.74483 3.97027 10.602L13.5 20.5834L23.0297 10.602C23.8449 9.74483 24.3026 8.585 24.3026 7.376C24.3026 6.167 23.8449 5.00717 23.0297 4.15003C22.1978 3.32795 21.0966 2.86995 19.9521 2.86995C18.8076 2.86995 17.7065 3.32795 16.8745 4.15003L14.4584 6.69128C14.3329 6.8236 14.1836 6.92863 14.0191 7.00031C13.8546 7.07199 13.6782 7.10889 13.5 7.10889C13.3218 7.10889 13.1454 7.07199 12.9809 7.00031C12.8164 6.92863 12.6671 6.8236 12.5416 6.69128L10.1255 4.15003C9.72189 3.72691 9.24208 3.39174 8.7138 3.16394C8.18552 2.93614 7.61927 2.82023 7.04786 2.82294Z" fill="#939191"/>
</svg>
