<svg width="53" height="53" viewBox="0 0 53 53" fill="none" xmlns="http://www.w3.org/2000/svg">
<path d="M22.0833 30.9166H30.9166V46.375H22.0833V30.9166Z" fill="#939191"/>
<path d="M45.0942 22.4807L28.0679 5.07906C27.8626 4.87208 27.6184 4.70779 27.3493 4.59568C27.0802 4.48356 26.7915 4.42584 26.5 4.42584C26.2085 4.42584 25.9198 4.48356 25.6507 4.59568C25.3816 4.70779 25.1374 4.87208 24.9321 5.07906L7.90584 22.5028C7.49385 22.9181 7.16847 23.4112 6.94859 23.9533C6.72872 24.4954 6.61873 25.0758 6.62501 25.6607V44.1666C6.6233 45.297 7.05513 46.3851 7.83159 47.2068C8.60804 48.0284 9.67 48.5211 10.7988 48.5832H17.6667V28.7082C17.6667 28.1225 17.8993 27.5608 18.3135 27.1467C18.7276 26.7326 19.2893 26.4999 19.875 26.4999H33.125C33.7107 26.4999 34.2724 26.7326 34.6865 27.1467C35.1007 27.5608 35.3333 28.1225 35.3333 28.7082V48.5832H42.2013C43.33 48.5211 44.392 48.0284 45.1684 47.2068C45.9449 46.3851 46.3767 45.297 46.375 44.1666V25.6607C46.3768 24.4747 45.9175 23.3344 45.0942 22.4807Z" fill="#939191"/>
</svg>
