<svg width="34" height="37" viewBox="0 0 34 37" fill="none" xmlns="http://www.w3.org/2000/svg">
<path d="M24.0834 13.8751C24.0834 11.8307 23.3371 9.87006 22.0087 8.42447C20.6803 6.97887 18.8786 6.16675 17 6.16675C15.1214 6.16675 13.3197 6.97887 11.9913 8.42447C10.663 9.87006 9.91669 11.8307 9.91669 13.8751C9.91669 14.284 10.0659 14.6761 10.3316 14.9652C10.5973 15.2543 10.9576 15.4167 11.3334 15.4167C11.7091 15.4167 12.0694 15.2543 12.3351 14.9652C12.6008 14.6761 12.75 14.284 12.75 13.8751C12.75 12.9603 12.9993 12.0661 13.4663 11.3056C13.9333 10.545 14.597 9.95219 15.3736 9.60214C16.1502 9.25208 17.0047 9.16049 17.8292 9.33895C18.6536 9.51741 19.4109 9.95789 20.0052 10.6047C20.5996 11.2515 21.0044 12.0756 21.1684 12.9728C21.3323 13.87 21.2482 14.7999 20.9265 15.645C20.6048 16.4901 20.0601 17.2124 19.3612 17.7206C18.6623 18.2288 17.8406 18.5001 17 18.5001C16.6243 18.5001 16.264 18.6625 15.9983 18.9516C15.7326 19.2407 15.5834 19.6329 15.5834 20.0417V23.1251C15.5834 23.534 15.7326 23.9261 15.9983 24.2152C16.264 24.5043 16.6243 24.6667 17 24.6667C17.3757 24.6667 17.7361 24.5043 18.0018 24.2152C18.2674 23.9261 18.4167 23.534 18.4167 23.1251V21.4292C20.0166 21.0738 21.4546 20.1278 22.4872 18.7512C23.5198 17.3746 24.0837 15.6521 24.0834 13.8751Z" fill="#939191"/>
<path d="M17 30.8336C17.7824 30.8336 18.4167 30.1433 18.4167 29.2919C18.4167 28.4405 17.7824 27.7502 17 27.7502C16.2176 27.7502 15.5834 28.4405 15.5834 29.2919C15.5834 30.1433 16.2176 30.8336 17 30.8336Z" fill="#939191"/>
</svg>
