<svg width="53" height="53" viewBox="0 0 53 53" fill="none" xmlns="http://www.w3.org/2000/svg">
<path d="M26.5 4.41638C22.1323 4.41638 17.8627 5.71155 14.2311 8.13809C10.5995 10.5646 7.76906 14.0136 6.09763 18.0488C4.42619 22.084 3.98887 26.5242 4.84096 30.808C5.69305 35.0917 7.79628 39.0266 10.8847 42.115C13.9731 45.2034 17.908 47.3066 22.1917 48.1587C26.4755 49.0108 30.9157 48.5735 34.9509 46.9021C38.9861 45.2306 42.435 42.4001 44.8616 38.7686C47.2881 35.137 48.5833 30.8674 48.5833 26.4997C48.5833 23.5997 48.0121 20.7281 46.9023 18.0488C45.7925 15.3695 44.1659 12.9351 42.1152 10.8844C40.0646 8.83381 37.6302 7.20717 34.9509 6.09738C32.2716 4.98758 29.4 4.41638 26.5 4.41638ZM28.7083 35.333C28.7083 35.9187 28.4756 36.4804 28.0615 36.8946C27.6474 37.3087 27.0857 37.5414 26.5 37.5414C25.9143 37.5414 25.3526 37.3087 24.9384 36.8946C24.5243 36.4804 24.2916 35.9187 24.2916 35.333V24.2914C24.2916 23.7057 24.5243 23.144 24.9384 22.7299C25.3526 22.3157 25.9143 22.083 26.5 22.083C27.0857 22.083 27.6474 22.3157 28.0615 22.7299C28.4756 23.144 28.7083 23.7057 28.7083 24.2914V35.333ZM26.5 19.8747C26.0632 19.8747 25.6362 19.7452 25.2731 19.5025C24.9099 19.2599 24.6269 18.915 24.4597 18.5115C24.2926 18.108 24.2489 17.6639 24.3341 17.2356C24.4193 16.8072 24.6296 16.4137 24.9384 16.1049C25.2473 15.796 25.6408 15.5857 26.0691 15.5005C26.4975 15.4153 26.9415 15.459 27.3451 15.6261C27.7486 15.7933 28.0935 16.0763 28.3361 16.4395C28.5788 16.8027 28.7083 17.2296 28.7083 17.6664C28.7083 18.2521 28.4756 18.8138 28.0615 19.2279C27.6474 19.6421 27.0857 19.8747 26.5 19.8747Z" fill="#939191"/>
</svg>
