<svg width="46" height="41" viewBox="0 0 46 41" fill="none" xmlns="http://www.w3.org/2000/svg">
<path d="M39.5294 32.9538L33.0398 27.1625C35.1336 24.775 36.2697 21.8268 36.2655 18.7917C36.2655 16.0887 35.3699 13.4464 33.6921 11.1989C32.0142 8.95141 29.6294 7.19972 26.8393 6.16532C24.0491 5.13092 20.9789 4.86028 18.0168 5.38761C15.0548 5.91494 12.334 7.21656 10.1985 9.12788C8.063 11.0392 6.6087 13.4744 6.01951 16.1254C5.43033 18.7765 5.73272 21.5244 6.88845 24.0217C8.04417 26.5189 10.0013 28.6534 12.5124 30.1551C15.0235 31.6568 17.9757 32.4583 20.9958 32.4583C24.3869 32.4621 27.681 31.4453 30.3485 29.5713L36.819 35.3796C36.9965 35.5397 37.2076 35.6668 37.4401 35.7535C37.6727 35.8403 37.9222 35.8849 38.1742 35.8849C38.4262 35.8849 38.6756 35.8403 38.9082 35.7535C39.1408 35.6668 39.3519 35.5397 39.5294 35.3796C39.7083 35.2208 39.8503 35.0318 39.9472 34.8237C40.0441 34.6155 40.094 34.3922 40.094 34.1667C40.094 33.9412 40.0441 33.7179 39.9472 33.5097C39.8503 33.3015 39.7083 33.1126 39.5294 32.9538ZM9.54353 18.7917C9.54353 16.7644 10.2152 14.7827 11.4736 13.0971C12.732 11.4115 14.5206 10.0977 16.6132 9.32191C18.7058 8.54611 21.0085 8.34312 23.23 8.73862C25.4515 9.13412 27.4921 10.1103 29.0938 11.5438C30.6954 12.9773 31.7861 14.8037 32.228 16.792C32.6699 18.7803 32.4431 20.8412 31.5763 22.7142C30.7095 24.5871 29.2417 26.188 27.3583 27.3142C25.475 28.4405 23.2608 29.0417 20.9958 29.0417C17.9585 29.0417 15.0455 27.9618 12.8978 26.0395C10.7501 24.1173 9.54353 21.5101 9.54353 18.7917Z" fill="#D9D9D9"/>
</svg>
